# xmcd
#
# Track frame offsets:
#	150
#	14092
#	29672
#	49775
#	66755
#	81755
#	95307
#	121595
#	138932
#	160465
#	174010
#	194170
#
# Disc length: 2767 seconds
#
# Revision: 1
# Processed by: cddbd v1.5.2PL0 Copyright (c) Steve Scherf et al.
# Submitted via: audiograbber 1.83.01
#
DISCID=9e0acd0c
DTITLE=Various Artist - Legends of Soul
DYEAR=1999
DGENRE=Soul
TTITLE0=Sly and the Family Stone - Family Affair
TTITLE1=Howard Melvin and the Blue Notes - If You Dont Know Me By Now
TTITLE2=Manhattans - Kiss And Say Goodbye
TTITLE3=Major Harris - Love Wont Let Me Wait
TTITLE4=Main Ingredient - Everybody Plays The Fool
TTITLE5=OJays - Love Train
TTITLE6=MFSB (Feat Three Degrees) - TSOP
TTITLE7=Brook Benton - Rainy Night In Georgia
TTITLE8=Billy Paul - Me And Mrs Jones
TTITLE9=Three Degrees - When Will I See You Again
TTITLE10=Lou Rawls - Youll Never Find Another Love Like Mine
TTITLE11=Sly and the Family Stone - If You want Me To Stay
EXTD=
EXTT0=
EXTT1=
EXTT2=
EXTT3=
EXTT4=
EXTT5=
EXTT6=
EXTT7=
EXTT8=
EXTT9=
EXTT10=
EXTT11=
PLAYORDER=
